<svg width="64" height="44" viewBox="0 0 64 44" fill="none" xmlns="http://www.w3.org/2000/svg">
<path d="M44.9916 14.2615H17.4748C16.8977 14.2615 16.4287 14.7322 16.4789 15.2853C17.082 21.8701 23.4572 27.0518 31.2323 27.0518C39.0073 27.0518 45.3825 21.8701 45.9856 15.2853C46.0377 14.7322 45.5686 14.2615 44.9916 14.2615Z" fill="#FF6633"/>
<path d="M26.266 4.40841C25.9589 4.40841 25.6536 4.27596 25.4544 4.0218C24.4493 2.75101 22.5395 1.95989 20.4715 1.95989C18.4035 1.95989 16.4937 2.74922 15.4886 4.0218C15.148 4.45316 14.5076 4.53549 14.0609 4.20795C13.6123 3.88041 13.5267 3.2647 13.8673 2.83513C15.2708 1.05959 17.739 0 20.4715 0C23.204 0 25.6722 1.05959 27.0776 2.83513C27.4182 3.26648 27.3307 3.88041 26.884 4.20795C26.6978 4.34398 26.4819 4.40841 26.266 4.40841Z" fill="#414141"/>
<path d="M47.7879 4.40841C47.4807 4.40841 47.1755 4.27596 46.9763 4.0218C45.9711 2.75101 44.0614 1.95989 41.9934 1.95989C39.9254 1.95989 38.0156 2.74922 37.0104 4.0218C36.6698 4.45316 36.0295 4.53549 35.5828 4.20795C35.1342 3.88041 35.0485 3.2647 35.3892 2.83513C36.7927 1.05959 39.2609 0 41.9934 0C44.7259 0 47.1941 1.05959 48.5994 2.83513C48.9401 3.26648 48.8526 3.88041 48.4058 4.20795C48.2197 4.34398 48.0038 4.40841 47.7879 4.40841Z" fill="#414141"/>
<path d="M2.85197 30.0031L2.45178 31.0216C2.41641 31.1057 2.28797 31.1397 2.16885 31.0985C1.89708 31.0198 1.61601 30.8784 1.32192 30.6707C1.02968 30.4667 0.798866 30.2501 0.627619 30.0228C0.368886 29.6774 0.188332 29.3015 0.087817 28.9006C-0.00897503 28.4961 -0.0238661 28.1059 0.0338368 27.7229C0.0952625 27.3434 0.236728 26.9765 0.456371 26.6257C0.677876 26.2749 0.962668 25.976 1.32005 25.729C1.67558 25.482 2.06089 25.3137 2.47597 25.2224C2.89106 25.1311 3.29871 25.1168 3.69332 25.1813C4.09352 25.2457 4.47324 25.3835 4.83807 25.6001C5.20663 25.8149 5.5212 26.0977 5.77993 26.4431C5.9456 26.6651 6.0852 26.9461 6.19316 27.2808C6.30484 27.6155 6.36068 27.9287 6.35882 28.2222C6.36068 28.3404 6.2732 28.4299 6.17641 28.4334L5.04841 28.4639C4.94045 28.4639 4.8511 28.3672 4.8511 28.2294C4.85482 28.0629 4.83249 27.8947 4.77851 27.7193C4.72453 27.5439 4.65566 27.3989 4.57003 27.2843C4.29269 26.9156 3.92413 26.6919 3.46251 26.6203C3.00461 26.5469 2.58766 26.6436 2.20421 26.9085C1.82449 27.1716 1.5974 27.5224 1.52667 27.9645C1.45966 28.403 1.5639 28.8111 1.84124 29.1798C1.92687 29.2944 2.04413 29.4017 2.19677 29.502C2.35126 29.604 2.50203 29.681 2.65653 29.7293C2.8073 29.7758 2.89106 29.8957 2.85197 30.0031Z" fill="#414141"/>
<path d="M7.35467 28.8361C7.44774 28.7377 7.56686 28.7341 7.66738 28.8236L10.5637 31.3831C10.6661 31.4726 10.6698 31.5872 10.5767 31.6838L9.92524 32.364C9.82659 32.4678 9.72049 32.4713 9.61253 32.3765L7.65807 30.6493L6.97308 31.3652L8.45661 32.6772C8.56829 32.7756 8.57946 32.8937 8.47894 32.9976L7.941 33.5596C7.84793 33.658 7.72322 33.6562 7.6134 33.5596L6.12988 32.2476L5.42627 32.985L7.38073 34.7122C7.51847 34.834 7.52964 34.9915 7.41237 35.1114L6.80184 35.7504C6.71063 35.8452 6.58964 35.847 6.48912 35.7575L3.53324 33.1479C3.43087 33.0584 3.42342 32.9474 3.51649 32.849L7.35467 28.8361Z" fill="#414141"/>
<path d="M13.62 37.2574C13.6126 37.542 13.5288 37.8087 13.3669 38.0575C13.0597 38.5318 12.6614 38.8039 12.1719 38.8755C11.686 38.9488 11.1556 38.8164 10.5841 38.4727L8.57195 37.2664C8.47888 37.2109 8.46213 37.1393 8.51797 37.0534L11.5818 32.3282C11.6377 32.2422 11.7121 32.2261 11.8033 32.2816L13.6666 33.3985C14.2119 33.726 14.5526 34.1055 14.6903 34.5386C14.8281 34.9718 14.7499 35.4174 14.4558 35.8721C14.2194 36.2372 13.8062 36.477 13.3911 36.4896C13.5512 36.7187 13.6275 36.9728 13.62 37.2574ZM11.2859 37.3559C11.6153 37.5545 11.9541 37.4812 12.1551 37.1715C12.3524 36.8672 12.2649 36.554 11.9336 36.3571L11.0885 35.8506L10.4408 36.8493L11.2859 37.3559ZM12.237 34.0822L11.6898 34.9252L12.3878 35.3441C12.6689 35.5123 12.9481 35.4532 13.1156 35.1937C13.2831 34.9342 13.2142 34.6693 12.9332 34.501L12.237 34.0822Z" fill="#414141"/>
<path d="M16.4648 35.1866C16.5169 35.0631 16.6249 35.0184 16.7533 35.0685L20.4035 36.4771C20.532 36.5272 20.5785 36.6311 20.5264 36.7546L20.169 37.6119C20.115 37.7425 20.0163 37.7819 19.8805 37.73L17.416 36.7796L17.04 37.6817L18.9107 38.403C19.0503 38.4567 19.1043 38.5641 19.0503 38.6948L18.7543 39.4035C18.7022 39.527 18.5868 39.5682 18.4472 39.5145L16.5765 38.7932L16.1893 39.7221L18.6538 40.6725C18.8288 40.7406 18.8958 40.882 18.8306 41.0359L18.4937 41.8413C18.4435 41.9612 18.3318 42.0042 18.2034 41.9541L14.4787 40.5168C14.3503 40.4667 14.3019 40.3665 14.354 40.243L16.4648 35.1866Z" fill="#414141"/>
<path d="M23.9772 37.3449C24.6138 37.4792 25.0885 37.7691 25.4012 38.2184C25.7139 38.6641 25.8051 39.1885 25.6655 39.7935C25.5296 40.3913 25.2188 40.828 24.7404 41.1054C24.262 41.3793 23.7073 41.4509 23.0689 41.3166L22.3541 41.1663L21.9967 42.7288C21.9669 42.8577 21.8683 42.9203 21.725 42.8899L20.6789 42.6698C20.5449 42.6411 20.4853 42.5463 20.5132 42.4174L21.7287 37.0961C21.7566 36.9744 21.8627 36.9028 21.9893 36.9297L22.5161 37.0407L23.0466 37.1534L23.9772 37.3449ZM23.3034 40.01C23.5119 40.0548 23.7018 40.0244 23.8674 39.9241C24.0368 39.8239 24.1429 39.6735 24.1894 39.4731C24.236 39.2726 24.2043 39.0936 24.0945 38.9343C23.9903 38.7715 23.8302 38.6676 23.6217 38.6247L22.9684 38.4869L22.6519 39.874L23.3034 40.01Z" fill="#414141"/>
<path d="M31.2772 38.1309C31.4075 38.1381 31.4894 38.2311 31.482 38.3546L31.1693 43.7994C31.1618 43.9318 31.078 44.0088 30.9403 43.9998L29.8719 43.9426C29.7248 43.9354 29.6466 43.8495 29.6541 43.7171L29.7472 42.0954L29.1255 42.0632L28.1371 43.6705C28.0496 43.8065 27.9937 43.8441 27.8727 43.837L26.6237 43.7707C26.4897 43.7636 26.4227 43.6311 26.4953 43.5184L27.6736 41.6677C27.0965 41.2954 26.7838 40.6707 26.8266 39.9351C26.862 39.3212 27.091 38.8379 27.5172 38.4889C27.9435 38.1363 28.4851 37.9806 29.1366 38.0146L31.0036 38.113L31.2772 38.1309ZM29.8197 40.839L29.9035 39.3767L29.1236 39.3355C28.9058 39.3248 28.7234 39.382 28.5782 39.5073C28.433 39.6326 28.353 39.7973 28.3399 40.0067C28.3288 40.2161 28.3883 40.3951 28.5186 40.5508C28.6527 40.7029 28.8276 40.7853 29.0398 40.796L29.8197 40.839Z" fill="#414141"/>
<path d="M37.8851 37.5528C37.9894 37.5402 38.0489 37.5868 38.062 37.6906L38.7507 43.2177C38.7637 43.3215 38.7153 43.3788 38.6129 43.3913L37.4384 43.5273C37.3342 43.5398 37.2746 43.4933 37.2616 43.3895L36.988 41.1933L34.7171 41.4547L34.9907 43.6508C35.0037 43.7546 34.9553 43.8119 34.8529 43.8244L33.6821 43.9587C33.5742 43.9712 33.5146 43.9247 33.5016 43.8209L32.8129 38.2938C32.7998 38.19 32.8482 38.1327 32.9562 38.1202L34.127 37.9859C34.2312 37.9734 34.2908 38.0199 34.3038 38.1237L34.5551 40.1409L36.826 39.8796L36.5747 37.8624C36.5617 37.7586 36.6101 37.7013 36.7125 37.6888L37.8851 37.5528Z" fill="#414141"/>
<path d="M39.7981 38.9775C39.8316 38.564 39.9395 38.1864 40.1182 37.8463C40.3006 37.5045 40.5519 37.1966 40.8739 36.9281C41.1941 36.6561 41.5608 36.4556 41.9777 36.3232C42.3947 36.1907 42.8135 36.1424 43.236 36.1782C43.6604 36.2086 44.0532 36.3124 44.4068 36.4842C44.7642 36.6543 45.0863 36.8959 45.3655 37.2091C45.6484 37.517 45.8569 37.8696 45.9946 38.2705C46.177 38.8021 46.2105 39.3337 46.097 39.8599C45.9834 40.3879 45.7433 40.8533 45.3655 41.2578C44.9932 41.6605 44.5278 41.9469 43.9713 42.1241C43.5543 42.2565 43.1355 42.3048 42.7111 42.2744C42.2849 42.2404 41.8921 42.1366 41.5347 41.9666C41.1811 41.7947 40.8609 41.5549 40.5798 41.2488C40.3025 40.9392 40.0922 40.5866 39.9563 40.1892C39.8167 39.7883 39.7664 39.3856 39.7981 38.9775ZM42.2179 40.66C42.6255 40.8568 43.0518 40.8819 43.4966 40.7405C43.9378 40.6009 44.2598 40.336 44.4664 39.9458C44.6712 39.5538 44.7047 39.1511 44.5576 38.7269C44.4106 38.2991 44.1332 37.9895 43.7256 37.7926C43.3179 37.5957 42.8935 37.5653 42.4543 37.7049C42.0131 37.8445 41.6874 38.113 41.4826 38.505C41.2779 38.897 41.2462 39.305 41.3933 39.731C41.5385 40.157 41.8121 40.4631 42.2179 40.66Z" fill="#414141"/>
<path d="M49.9469 32.7738C50.0474 32.7183 50.1722 32.7559 50.2373 32.8632L53.0666 37.5813C53.128 37.6815 53.0945 37.8122 52.9884 37.8695L52.0503 38.3885C51.9461 38.4476 51.8176 38.41 51.7562 38.3098L50.8013 36.7186C50.684 37.1034 50.3974 37.4703 49.9935 37.6959C49.3699 38.0413 48.7482 38.1308 48.1302 37.9679C47.5104 37.8015 47.0097 37.4023 46.63 36.7687L45.7719 35.3368C45.7104 35.2366 45.7383 35.1041 45.837 35.0504L46.7677 34.535C46.8831 34.4705 47.019 34.5028 47.0823 34.6101L47.9385 36.0384C48.2661 36.5844 48.7966 36.7222 49.3662 36.4072C49.6528 36.2479 49.8278 36.0438 49.9041 35.7932C49.9804 35.5427 49.9414 35.2849 49.785 35.0236L48.925 33.5881C48.8636 33.4879 48.8953 33.3537 48.9976 33.2982L49.9469 32.7738Z" fill="#414141"/>
<path d="M59.2315 32.6002C59.3749 32.6342 59.4437 32.7631 59.3358 32.8562L58.3008 33.7457C58.2357 33.8012 58.1575 33.8263 58.0737 33.8155L55.3878 33.1461L54.7456 33.6974L56.231 35.2957C56.3036 35.3745 56.2998 35.4479 56.2217 35.5141L55.3338 36.2784C55.2519 36.3482 55.1756 36.3446 55.103 36.2658L51.2499 32.1187C51.181 32.0436 51.1848 31.9702 51.2648 31.9004L52.1527 31.1361C52.2309 31.0699 52.3072 31.0735 52.3779 31.1486L53.7926 32.6718L54.2951 32.2405L54.0587 29.6989C54.0439 29.5449 54.0922 29.4823 54.2021 29.3874L55.2277 28.5068C55.3431 28.4084 55.4697 28.4835 55.4827 28.6428L55.76 31.7482L59.2315 32.6002Z" fill="#414141"/>
<path d="M63.8454 26.6721C63.9888 26.7062 64.0465 26.8082 63.9534 26.937L63.2703 27.8713C63.2033 27.9626 63.0748 28.0002 62.952 27.9716L62.1367 27.7443L60.9175 29.4106L61.4145 30.0657C61.4908 30.157 61.4964 30.2894 61.4219 30.3897L60.7406 31.3204C60.6513 31.4421 60.534 31.4367 60.4447 31.3114L57.096 26.4216C57.0216 26.307 57.0253 26.1764 57.0923 26.0851L57.6005 25.3906C57.6675 25.2993 57.8015 25.2564 57.9262 25.2868L63.8454 26.6721ZM60.1301 28.3761L60.856 27.3827L58.9779 26.8547L60.1301 28.3761Z" fill="#414141"/>
</svg>
